<svg xmlns="http://www.w3.org/2000/svg" viewBox="0 0 240 240" width="240" height="240" role="img" aria-label="Telegram">
  <defs>
    <linearGradient id="tg-logo" x1="120" y1="0" x2="120" y2="238" gradientUnits="userSpaceOnUse">
      <stop offset="0" stop-color="#2AABEE"/>
      <stop offset="1" stop-color="#229ED9"/>
    </linearGradient>
  </defs>
  <circle cx="120" cy="120" r="120" fill="url(#tg-logo)"/>
  <path fill="#ffffff" d="M81.229 128.772l14.237 39.406s1.78 3.687 3.686 3.687 30.255-29.492 30.255-29.492l31.525-60.89L81.737 118.6z"/>
  <path fill="#d2e4f0" d="M100.106 138.878l-2.733 29.046s-1.144 8.9 7.754 0 17.415-15.763 17.415-15.763z"/>
  <path fill="#b5cfe4" d="M81.486 130.178L52.2 120.636s-3.5-1.42-2.373-4.64c.232-.664.7-1.229 2.1-2.2 6.488-4.523 120.107-45.36 120.107-45.36s3.208-1.081 5.1-.362a2.766 2.766 0 0 1 1.885 2.055 9.357 9.357 0 0 1 .244 2.585c-.012.749-.1 1.443-.172 2.542-.728 11.752-22.474 99.252-22.474 99.252s-1.3 5.121-5.964 5.3a8.532 8.532 0 0 1-6.243-2.443c-9.119-7.835-40.629-29.012-47.601-33.674a1.327 1.327 0 0 1-.57-.94c-.077-.49.455-1.097.455-1.097s54.883-48.794 56.343-53.929c.113-.398-.315-.594-.889-.42-3.649 1.343-66.866 41.262-73.842 45.665a3.398 3.398 0 0 1-1.978.213z"/>
</svg>
